<svg xmlns="http://www.w3.org/2000/svg" xmlns:xlink="http://www.w3.org/1999/xlink" xml:space="preserve" version="1.1" style="shape-rendering:geometricPrecision;text-rendering:geometricPrecision;image-rendering:optimizeQuality;" viewBox="0 0 721 398.75" x="0px" y="0px" fill-rule="evenodd" clip-rule="evenodd"><defs><style type="text/css">
   
    .fil0 {fill:black}
    .fil1 {fill:black;fill-rule:nonzero}
   
  </style></defs><g><path class="fil0" d="M677 110c-45,-38 -97,-58 -113,-64 -73,-25 -188,17 -272,48 -57,21 -101,37 -115,24 -5,-4 -8,-3 -11,0 -8,8 -13,29 -8,39 2,3 5,4 11,1 12,-6 53,9 103,28 112,41 167,62 287,47 -24,-34 -32,-76 7,-122 -27,44 -17,84 12,119 35,-6 75,-14 107,-29 14,-7 25,-14 31,-22 -16,4 -34,5 -44,-4 13,3 33,0 49,-7 2,-10 -19,-38 -44,-58zm-254 75c-27,6 -29,-11 -4,-23 -14,-7 1,-18 10,-21 -7,-3 -21,-11 -12,-19 -26,-13 -16,-27 11,-21 -1,-3 -1,-6 0,-8 10,-16 62,22 73,30 -17,7 -19,28 -5,40 -17,10 -75,48 -73,22zm214 -83c18,6 27,25 21,43 -6,17 -25,27 -42,21 -18,-6 -27,-25 -22,-43 6,-17 26,-27 43,-21z"/><path class="fil0" d="M642 127l0 -1c-2,-3 -6,-6 -10,-8 -5,-1 -9,-1 -13,1 -4,2 -7,5 -8,10 -2,4 -2,9 0,12l0 0c2,4 6,7 10,9 4,1 9,1 13,-1 4,-2 7,-5 8,-10 2,-4 1,-9 0,-12z"/><path class="fil0" d="M8 10l147 94c-14,14 -21,47 -10,64l-145 75c13,-38 39,-98 80,-113 -47,-28 -59,-70 -72,-120z"/><path class="fil0" d="M328 63c7,-25 16,-58 15,-62 -1,-5 66,9 118,25 -44,8 -91,22 -133,37z"/><path class="fil0" d="M313 68c-7,-13 -22,-25 -34,-31 -29,27 -65,35 -103,51 5,3 15,10 21,19 30,-3 84,-27 116,-39z"/><path class="fil0" d="M399 245c-18,28 -32,36 -60,56 -6,-26 -25,-59 -48,-90 35,12 73,25 108,34z"/><path class="fil0" d="M543 251c-27,45 -56,56 -108,68 6,-10 14,-31 22,-64 22,1 53,0 86,-4z"/><path class="fil1" d="M443 101c-1,2 0,2 2,1 -1,-1 -1,-2 -2,-1z"/><path class="fil1" d="M419 110c-1,2 0,2 2,1 -1,-1 -2,-2 -2,-1z"/><path class="fil1" d="M431 129c0,1 0,2 1,1 0,-1 -1,-2 -1,-1z"/><path class="fil1" d="M431 152c0,2 0,1 2,0 -2,-1 -3,-1 -2,0z"/><path class="fil1" d="M418 175c0,1 1,0 2,-1 -2,0 -3,0 -2,1l0 0z"/><path class="fil1" d="M439 182c1,0 1,0 2,-1 -2,0 -3,-1 -2,1z"/><path class="fil1" d="M485 160c-10,6 -50,31 -53,26 -2,-4 20,-17 36,-26 -21,9 -56,22 -58,18 -2,-5 40,-20 61,-28 -18,4 -48,8 -49,4 -1,-6 38,-11 54,-13 -16,-2 -54,-8 -53,-13 0,-5 26,0 44,3 -22,-7 -58,-19 -56,-23 1,-5 43,10 64,18 -16,-9 -42,-25 -39,-29 3,-5 39,19 51,27 -2,1 -3,3 -5,4l0 0 0 1 0 0 0 0 0 0c-1,2 -2,3 -3,5l0 0 0 0 0 1 0 0 0 0 0 0 0 0 0 0c-1,2 -1,4 -2,6l0 0 0 0 0 0 0 0 0 0 0 1 0 0c0,2 0,4 1,6l0 0 0 0 0 0 0 0 0 0 0 0 0 0 0 0 0 0 0 1 0 0 0 0 0 0 0 0 0 0 0 0 0 0c1,2 1,3 2,5l0 0 0 0 0 0 0 0 0 0 0 0 0 0 0 0 0 0 0 0 0 0 0 0 0 0 0 1 0 0 1 0 0 0 0 0 0 0 0 0 0 0 0 0c1,2 2,3 4,5z"/></g><text x="0" y="334" fill="#000000" font-size="5px" font-weight="bold" font-family="'Helvetica Neue', Helvetica, Arial-Unicode, Arial, Sans-serif">Created by Kangrif</text><text x="0" y="339" fill="#000000" font-size="5px" font-weight="bold" font-family="'Helvetica Neue', Helvetica, Arial-Unicode, Arial, Sans-serif">from the Noun Project</text></svg>