<?xml version="1.0" encoding="utf-8"?>
<!-- Generator: Adobe Illustrator 16.2.1, SVG Export Plug-In . SVG Version: 6.00 Build 0)  -->
<!DOCTYPE svg PUBLIC "-//W3C//DTD SVG 1.1//EN" "http://www.w3.org/Graphics/SVG/1.1/DTD/svg11.dtd">
<svg version="1.1" id="Layer_1" xmlns="http://www.w3.org/2000/svg" xmlns:xlink="http://www.w3.org/1999/xlink" x="0px" y="0px"
	 width="611.988px" height="612.051px" viewBox="0.012 22.475 611.988 612.051"
	 enable-background="new 0.012 22.475 611.988 612.051" xml:space="preserve">
<path fill="#FFFFFF" d="M586.5,634.525h-561c-9.945,0-18.998-5.813-23.154-14.841c-4.157-9.027-2.678-19.66,3.774-27.228
	l235.237-275.349L6.859,65.391c-6.91-7.42-8.772-18.258-4.743-27.54C6.171,28.493,15.351,22.475,25.5,22.475H510
	c14.076,0,25.5,11.424,25.5,25.5v76.5c0,14.102-11.424,25.5-25.5,25.5s-25.5-11.398-25.5-25.5v-51H84.099l210.043,225.522
	c8.849,9.486,9.154,24.046,0.739,33.934L80.784,583.5H561V456c0-14.076,11.424-25.5,25.5-25.5S612,441.924,612,456v153
	C612,623.102,600.576,634.525,586.5,634.525L586.5,634.525z"/>
</svg>
