<?xml version="1.0" encoding="utf-8"?>
<!-- Generator: Adobe Illustrator 16.2.1, SVG Export Plug-In . SVG Version: 6.00 Build 0)  -->
<!DOCTYPE svg PUBLIC "-//W3C//DTD SVG 1.1//EN" "http://www.w3.org/Graphics/SVG/1.1/DTD/svg11.dtd">
<svg version="1.1" id="Layer_1" xmlns="http://www.w3.org/2000/svg" xmlns:xlink="http://www.w3.org/1999/xlink" x="0px" y="0px"
	 width="581.914px" height="330.217px" viewBox="15.043 117.601 581.914 330.217"
	 enable-background="new 15.043 117.601 581.914 330.217" xml:space="preserve">
<g>
	<g>
		<path fill="#B5B5B5" d="M529.606,195.405c21.42,0,38.862-17.46,38.862-38.905c0-21.438-17.442-38.899-38.862-38.899
			c-21.457,0-38.893,17.46-38.893,38.899C490.714,177.944,508.149,195.405,529.606,195.405z M529.606,132.772
			c13.066,0,23.679,10.643,23.679,23.721c0,13.079-10.612,23.721-23.679,23.721c-13.091,0-23.728-10.643-23.728-23.721
			C505.879,143.421,516.516,132.772,529.606,132.772z"/>
		<path fill="#B5B5B5" d="M586.859,427.579h-44.866L413.039,204.248c-3.593-6.267-13.905-6.267-17.516,0l-54.235,93.942
			l-84.726-146.751c-1.812-3.133-5.153-5.061-8.782-5.061c-3.611,0-6.946,1.928-8.776,5.061L79.578,427.579H25.153
			c-5.588,0-10.11,4.522-10.11,10.116s4.522,10.123,10.11,10.123h60.257h82.241h104.768h137.707h67.638h58.392h50.697
			c5.588,0,10.104-4.529,10.104-10.123S592.446,427.579,586.859,427.579z M102.938,427.579l91.519-158.483h56.849
			c4.192,0,7.595-3.403,7.595-7.589c0-4.192-3.409-7.595-7.595-7.595h-48.073l7.552-13.072h26.604c4.186,0,7.595-3.403,7.595-7.589
			c0-4.198-3.415-7.595-7.595-7.595h-17.84l28.231-48.929l81.824,141.703l-63.036,109.138h-98.912h-64.719V427.579z
			 M289.959,427.579l51.329-88.893l51.31,88.893H289.959z M477.764,427.579h-61.812l-62.987-109.138l51.322-88.887L518.64,427.579
			H477.764z"/>
	</g>
</g>
<text transform="matrix(1 0 0 1 0 717.3008)" font-family="'HelveticaNeue-Bold'" font-size="30.6">Created by Como el buen vino studio</text>
<text transform="matrix(1 0 0 1 0 747.8984)" font-family="'HelveticaNeue-Bold'" font-size="30.6">from the Noun Project</text>
</svg>
