<?xml version="1.0" encoding="utf-8"?>
<!-- Generator: Adobe Illustrator 16.2.1, SVG Export Plug-In . SVG Version: 6.00 Build 0)  -->
<!DOCTYPE svg PUBLIC "-//W3C//DTD SVG 1.1//EN" "http://www.w3.org/Graphics/SVG/1.1/DTD/svg11.dtd">
<svg version="1.1" id="Layer_1" xmlns="http://www.w3.org/2000/svg" xmlns:xlink="http://www.w3.org/1999/xlink" x="0px" y="0px"
	 width="394.171px" height="527.023px" viewBox="108.917 55.991 394.171 527.023"
	 enable-background="new 108.917 55.991 394.171 527.023" xml:space="preserve">
<path fill="none" d="M117.639,253.073c0,104.034,84.333,188.355,188.361,188.355c104.04,0,188.361-84.321,188.361-188.355
	c0-104.028-84.321-188.362-188.361-188.362C201.972,64.712,117.639,149.046,117.639,253.073"/>
<path fill="#FFFFFF" d="M306,355.112c-56.249,0-102.026-45.771-102.026-102.039c0-56.255,45.771-102.026,102.026-102.026
	s102.021,45.771,102.021,102.026C408.021,309.341,362.255,355.112,306,355.112z M306,166.739c-47.602,0-86.329,38.733-86.329,86.334
	c0,47.602,38.727,86.347,86.329,86.347s86.322-38.739,86.322-86.341C392.322,205.479,353.602,166.739,306,166.739z"/>
<g>
	<defs>
		<path id="SVGID_1_" d="M117.639,253.073c0,104.034,84.333,188.355,188.361,188.355c104.04,0,188.361-84.321,188.361-188.355
			c0-104.028-84.321-188.362-188.361-188.362C201.972,64.712,117.639,149.046,117.639,253.073"/>
	</defs>
	<clipPath id="SVGID_2_">
		<use xlink:href="#SVGID_1_"  overflow="visible"/>
	</clipPath>
	<g clip-path="url(#SVGID_2_)">
		<path fill="#FFFFFF" d="M306,113.348c-56.249,0-102.026-45.771-102.026-102.045c0-56.249,45.771-102.014,102.026-102.014
			S408.021-44.946,408.021,11.303C408.021,67.576,362.255,113.348,306,113.348z M306-75.02c-47.602,0-86.329,38.727-86.329,86.322
			c0,47.607,38.727,86.347,86.329,86.347s86.322-38.74,86.322-86.347C392.322-36.292,353.602-75.02,306-75.02z"/>
	</g>
</g>
<g>
	<defs>
		<path id="SVGID_3_" d="M117.639,253.073c0,104.034,84.333,188.355,188.361,188.355c104.04,0,188.361-84.321,188.361-188.355
			c0-104.028-84.321-188.362-188.361-188.362C201.972,64.712,117.639,149.046,117.639,253.073"/>
	</defs>
	<clipPath id="SVGID_4_">
		<use xlink:href="#SVGID_3_"  overflow="visible"/>
	</clipPath>
	<g clip-path="url(#SVGID_4_)">
		<path fill="#FFFFFF" d="M555.708,355.112c-56.242,0-102.008-45.771-102.008-102.039c0-56.255,45.766-102.026,102.008-102.026
			c56.255,0,102.033,45.771,102.033,102.026C657.741,309.341,611.963,355.112,555.708,355.112z M555.708,166.739
			c-47.589,0-86.316,38.733-86.316,86.334c0,47.602,38.722,86.341,86.316,86.341c47.602,0,86.335-38.74,86.335-86.341
			C642.043,205.472,603.31,166.739,555.708,166.739z"/>
	</g>
</g>
<g>
	<defs>
		<path id="SVGID_5_" d="M117.639,253.073c0,104.034,84.333,188.355,188.361,188.355c104.04,0,188.361-84.321,188.361-188.355
			c0-104.028-84.321-188.362-188.361-188.362C201.972,64.712,117.639,149.046,117.639,253.073"/>
	</defs>
	<clipPath id="SVGID_6_">
		<use xlink:href="#SVGID_5_"  overflow="visible"/>
	</clipPath>
	<g clip-path="url(#SVGID_6_)">
		<path fill="#FFFFFF" d="M56.273,355.112c-56.249,0-102.021-45.771-102.021-102.039c0-56.255,45.771-102.026,102.021-102.026
			c56.261,0,102.026,45.771,102.026,102.026C158.3,309.341,112.541,355.112,56.273,355.112z M56.273,166.739
			c-47.595,0-86.323,38.733-86.323,86.334c0,47.602,38.728,86.347,86.323,86.347s86.329-38.739,86.329-86.341
			C142.602,205.479,103.875,166.739,56.273,166.739z"/>
	</g>
</g>
<path fill="#FFFFFF" d="M503.089,253.073c0-108.667-88.416-197.082-197.089-197.082s-197.083,88.416-197.083,197.082
	c0,47.026,16.604,90.215,44.187,124.132h-44.187v8.721c0,108.673,88.41,197.088,197.083,197.088S503.089,494.6,503.089,385.926
	v-8.715h-44.187C486.485,343.294,503.089,300.1,503.089,253.073z M306,73.433c99.059,0,179.646,80.588,179.646,179.646
	c0,99.064-80.588,179.64-179.646,179.64c-99.052,0-179.646-80.576-179.646-179.64C126.354,154.021,206.948,73.433,306,73.433z
	 M306,565.573c-96.121,0-174.861-75.895-179.438-170.926h42.656c35.466,34.297,83.661,55.515,136.782,55.515
	c53.121,0,101.316-21.218,136.794-55.508h42.65C480.86,489.679,402.127,565.573,306,565.573z"/>
<path fill="#FFFFFF" d="M242.548,262.333c4.816,0,8.721-3.911,8.721-8.727c0-30.471,24.792-55.264,55.257-55.264
	c4.811,0,8.721-3.904,8.721-8.721c0-4.817-3.91-8.721-8.721-8.721c-40.086,0-72.7,32.62-72.7,72.706
	C233.827,258.429,237.731,262.333,242.548,262.333z"/>
<path fill="#FFFFFF" d="M228.123,465.486c-13.819,0-25.074,11.261-25.074,25.099c0,13.807,11.255,25.073,25.074,25.073
	s25.074-11.267,25.074-25.073C253.197,476.747,241.942,465.486,228.123,465.486z M228.123,498.21c-4.21,0-7.632-3.427-7.632-7.625
	c0-4.224,3.421-7.656,7.632-7.656s7.632,3.433,7.632,7.656C235.755,494.789,232.34,498.21,228.123,498.21z"/>
<path fill="#FFFFFF" d="M383.865,465.486c-13.819,0-25.062,11.261-25.062,25.099c0,13.807,11.242,25.073,25.062,25.073
	c13.824,0,25.079-11.267,25.079-25.073C408.938,476.747,397.684,465.486,383.865,465.486z M383.865,498.21
	c-4.205,0-7.613-3.427-7.613-7.625c0-4.224,3.414-7.656,7.613-7.656c4.21,0,7.631,3.433,7.631,7.656
	C391.496,494.789,388.075,498.21,383.865,498.21z"/>
<path fill="#FFFFFF" d="M337.989,499.306h-63.991c-4.816,0-8.721-3.911-8.721-8.721c0-4.816,3.905-8.728,8.721-8.728h63.985
	c4.816,0,8.727,3.911,8.727,8.728C346.71,495.395,342.806,499.306,337.989,499.306z"/>
<text transform="matrix(1 0 0 1 0 717.3008)" font-family="'HelveticaNeue-Bold'" font-size="30.6">Created by Ivan Colic</text>
<text transform="matrix(1 0 0 1 0 747.8984)" font-family="'HelveticaNeue-Bold'" font-size="30.6">from the Noun Project</text>
</svg>
